<svg xmlns="http://www.w3.org/2000/svg" xmlns:xlink="http://www.w3.org/1999/xlink" x="0px" y="0px" width="48px" height="48px" viewBox="0 0 48 48"><g transform="translate(0, 0)"><path d="M24,46A22,22,0,1,1,46,24,22.025,22.025,0,0,1,24,46Z" fill="#ffd764"></path>
  <path d="M31,24a1,1,0,0,0,1-1,2,2,0,0,1,4,0,1,1,0,0,0,2,0,4,4,0,0,0-8,0A1,1,0,0,0,31,24Z" fill="#444"></path>
  <path d="M11,24a1,1,0,0,0,1-1,2,2,0,0,1,4,0,1,1,0,0,0,2,0,4,4,0,0,0-8,0A1,1,0,0,0,11,24Z" fill="#444"></path>
  <path d="M25,39H23a1,1,0,0,1,0-2h2a1.5,1.5,0,0,0,1.5-1.5,1.481,1.481,0,0,0-.309-.9l-.458-.6.458-.6a1.481,1.481,0,0,0,.309-.9A1.5,1.5,0,0,0,25,31H23a1,1,0,0,1,0-2h2a3.5,3.5,0,0,1,3.5,3.5,3.421,3.421,0,0,1-.344,1.5,3.421,3.421,0,0,1,.344,1.5A3.5,3.5,0,0,1,25,39Z" fill="#444"></path>
  <circle cx="38" cy="28" r="3" fill="#e86c60" opacity="0.5"></circle>
  <circle cx="10" cy="28" r="3" fill="#e86c60" opacity="0.5"></circle></g></svg>